<svg width="48" height="48" viewBox="0 0 48 48" fill="none" xmlns="http://www.w3.org/2000/svg">
<rect width="48" height="48" fill="#F5B59A"/>
<path d="M17.1622 5.80649C16.0747 4.6843 14.4869 4.11523 12.4409 4.11523H5.91998V22.0879H9.53748V7.54852H12.2334C13.1253 7.54852 13.8394 7.76039 14.2956 8.16367C14.7475 8.55774 14.9756 9.15914 14.9756 9.94477C14.9756 10.7052 14.7544 11.2951 14.3187 11.6984C13.8072 12.1707 12.9984 12.4104 11.9109 12.4104H11.3033V15.8435H12.0953C13.0306 15.8435 13.8947 15.7307 14.6597 15.5095C15.4756 15.2721 16.1828 14.9104 16.7659 14.4334C17.3809 13.9288 17.8556 13.2974 18.1759 12.5556C18.4987 11.8066 18.6622 10.9449 18.6622 9.99086C18.6622 8.26742 18.1437 6.82039 17.1622 5.80649Z" fill="#1F1D1B"/>
<path d="M24.7945 21.4659C23.7114 21.0073 22.7392 20.353 21.905 19.5189C21.0709 18.6847 20.4166 17.7123 19.958 16.6294C19.4833 15.5072 19.2436 14.3159 19.2436 13.0902C19.2436 11.8644 19.4833 10.673 19.958 9.55094C20.4166 8.46797 21.0709 7.49547 21.905 6.66141C22.7392 5.82734 23.7114 5.17297 24.7945 4.71437C25.9167 4.23969 27.108 4 28.3336 4C29.5595 4 30.7508 4.23969 31.873 4.71437C32.9561 5.17297 33.9283 5.82735 34.7623 6.66141C35.5967 7.49547 36.2511 8.46797 36.7095 9.55094C37.1842 10.673 37.4239 11.8644 37.4239 13.0902C37.4239 14.3159 37.1842 15.5072 36.7095 16.6294C36.2511 17.7123 35.5967 18.6847 34.7623 19.5189C33.9283 20.353 32.9561 21.0073 31.873 21.4659C30.7508 21.9406 29.5595 22.1802 28.3336 22.1802C27.108 22.1802 25.9167 21.9406 24.7945 21.4659ZM24.4627 9.22141C23.428 10.2559 22.8589 11.6292 22.8589 13.0925C22.8589 14.5556 23.428 15.9289 24.4627 16.9634C25.4973 17.9981 26.8705 18.5672 28.3336 18.5672C29.797 18.5672 31.1702 17.9981 32.2048 16.9634C33.2392 15.9289 33.8086 14.5556 33.8086 13.0925C33.8086 11.6292 33.2392 10.2559 32.2048 9.22141C31.1702 8.18688 29.7945 7.61766 28.3336 7.61766C26.873 7.61766 25.4973 8.18688 24.4627 9.22141Z" fill="#1F1D1B"/>
<path d="M23.8822 25.8065C22.7947 24.6843 21.2069 24.1152 19.161 24.1152H12.64V42.0879H16.2575V27.5485H18.9534C19.8453 27.5485 20.5594 27.7604 21.0156 28.1637C21.4675 28.5577 21.6956 29.1591 21.6956 29.9448C21.6956 30.7052 21.4744 31.2951 21.0388 31.6984C20.5272 32.1707 19.7185 32.4104 18.631 32.4104H18.0234V35.8435H18.8153C19.7506 35.8435 20.6147 35.7307 21.3797 35.5095C22.1956 35.2721 22.9028 34.9104 23.486 34.4334C24.101 33.9288 24.5756 33.2974 24.896 32.5556C25.2188 31.8066 25.3822 30.9449 25.3822 29.9909C25.3822 28.2674 24.8638 26.8204 23.8822 25.8065Z" fill="#1F1D1B"/>
<path d="M31.5146 41.4659C30.4314 41.0073 29.4592 40.353 28.625 39.5189C27.791 38.6847 27.1366 37.7123 26.678 36.6294C26.2033 35.5072 25.9636 34.3159 25.9636 33.0902C25.9636 31.8644 26.2033 30.673 26.678 29.5509C27.1366 28.468 27.791 27.4955 28.625 26.6614C29.4592 25.8273 30.4314 25.173 31.5146 24.7144C32.6367 24.2397 33.828 24 35.0536 24C36.2796 24 37.4708 24.2397 38.593 24.7144C39.6761 25.173 40.6483 25.8273 41.4824 26.6614C42.3168 27.4955 42.9711 28.468 43.4296 29.5509C43.9042 30.673 44.1439 31.8644 44.1439 33.0902C44.1439 34.3159 43.9042 35.5072 43.4296 36.6294C42.9711 37.7123 42.3168 38.6847 41.4824 39.5189C40.6483 40.353 39.6761 41.0073 38.593 41.4659C37.4708 41.9406 36.2796 42.1802 35.0536 42.1802C33.828 42.1802 32.6367 41.9406 31.5146 41.4659ZM31.1827 29.2214C30.148 30.2559 29.5789 31.6292 29.5789 33.0925C29.5789 34.5556 30.148 35.9289 31.1827 36.9634C32.2174 37.9981 33.5905 38.5672 35.0536 38.5672C36.5171 38.5672 37.8902 37.9981 38.9249 36.9634C39.9592 35.9289 40.5286 34.5556 40.5286 33.0925C40.5286 31.6292 39.9592 30.2559 38.9249 29.2214C37.8902 28.1869 36.5146 27.6177 35.0536 27.6177C33.593 27.6177 32.2174 28.1869 31.1827 29.2214Z" fill="#1F1D1B"/>
</svg>
